<svg width="106" height="82" viewBox="0 0 106 82" fill="none" xmlns="http://www.w3.org/2000/svg">
<path d="M98.2729 31H84.7988C84.858 35.0747 84.0708 39.12 82.483 42.9009C80.8951 46.6818 78.5382 50.123 75.5492 53.0245C72.5601 55.9259 68.9986 58.2299 65.0715 59.8024C61.1444 61.375 56.93 62.1848 52.6731 62.1848C48.4163 62.1848 44.2019 61.375 40.2747 59.8024C36.3476 58.2299 32.7861 55.9259 29.7971 53.0245C26.808 50.123 24.4511 46.6818 22.8633 42.9009C21.2754 39.12 20.4882 35.0747 20.5475 31H0V31.3398C0.0200724 42.3994 3.81368 53.15 10.8036 61.9557C17.7935 70.7614 27.597 77.1402 38.7223 80.1215C49.8477 83.1027 61.6859 82.5232 72.4356 78.471C83.1852 74.4189 92.2579 67.116 98.2729 57.6736C98.3227 57.6021 98.3663 57.5246 98.4099 57.4531C103.379 49.5737 106.004 40.5438 106 31.3398V31.0298L98.2729 31Z" fill="#4B5850"/>
<path d="M53.1581 31L53.4248 30.8467H84.9969C85.0559 26.8162 84.2719 22.8148 82.6904 19.0748C81.1089 15.3349 78.7614 11.931 75.7844 9.06101C72.8073 6.19098 69.2601 3.91201 65.3487 2.35652C61.4373 0.801017 57.2398 0 53 0C48.7602 0 44.5627 0.801017 40.6513 2.35652C36.7399 3.91201 33.1927 6.19098 30.2156 9.06101C27.2386 11.931 24.8911 15.3349 23.3096 19.0748C21.7281 22.8148 20.9441 26.8162 21.0031 30.8467H52.8915L53.1581 31Z" fill="#4B5850"/>
</svg>
