<svg width="96" height="96" viewBox="0 0 96 96" fill="none" xmlns="http://www.w3.org/2000/svg">
<path fill-rule="evenodd" clip-rule="evenodd" d="M19.2 0C14.1078 0 9.22425 2.02285 5.62355 5.62355C2.02285 9.22425 0 14.1078 0 19.2V76.8C0 81.8922 2.02285 86.7757 5.62355 90.3764C9.22425 93.9771 14.1078 96 19.2 96H76.8C81.8922 96 86.7757 93.9771 90.3764 90.3764C93.9771 86.7757 96 81.8922 96 76.8V19.2C96 14.1078 93.9771 9.22425 90.3764 5.62355C86.7757 2.02285 81.8922 0 76.8 0H19.2ZM9.6 19.2C9.6 16.6539 10.6114 14.2121 12.4118 12.4118C14.2121 10.6114 16.6539 9.6 19.2 9.6H76.8C79.3461 9.6 81.7879 10.6114 83.5882 12.4118C85.3886 14.2121 86.4 16.6539 86.4 19.2V76.8C86.4 79.3461 85.3886 81.7879 83.5882 83.5882C81.7879 85.3886 79.3461 86.4 76.8 86.4H19.2C16.6539 86.4 14.2121 85.3886 12.4118 83.5882C10.6114 81.7879 9.6 79.3461 9.6 76.8V19.2ZM33.6 43.2C33.6 41.927 33.0943 40.7061 32.1941 39.8059C31.2939 38.9057 30.073 38.4 28.8 38.4C27.527 38.4 26.3061 38.9057 25.4059 39.8059C24.5057 40.7061 24 41.927 24 43.2V72C24 73.273 24.5057 74.4939 25.4059 75.3941C26.3061 76.2943 27.527 76.8 28.8 76.8C30.073 76.8 31.2939 76.2943 32.1941 75.3941C33.0943 74.4939 33.6 73.273 33.6 72V43.2ZM36 26.4C36 28.3096 35.2414 30.1409 33.8912 31.4912C32.5409 32.8414 30.7096 33.6 28.8 33.6C26.8904 33.6 25.0591 32.8414 23.7088 31.4912C22.3586 30.1409 21.6 28.3096 21.6 26.4C21.6 24.4904 22.3586 22.6591 23.7088 21.3088C25.0591 19.9586 26.8904 19.2 28.8 19.2C30.7096 19.2 32.5409 19.9586 33.8912 21.3088C35.2414 22.6591 36 24.4904 36 26.4ZM48 38.4C49.632 38.4 51.072 39.216 51.936 40.4544C54.4099 39.1061 57.1825 38.3998 60 38.4C70.368 38.4 76.8 47.6448 76.8 55.5408V72C76.8 73.273 76.2943 74.4939 75.3941 75.3941C74.4939 76.2943 73.273 76.8 72 76.8C70.727 76.8 69.5061 76.2943 68.6059 75.3941C67.7057 74.4939 67.2 73.273 67.2 72V55.536C67.2 51.8496 64.032 47.9952 60 47.9952C57.4848 47.9952 54.7056 49.3632 52.8 52.6176V72C52.8 73.273 52.2943 74.4939 51.3941 75.3941C50.4939 76.2943 49.273 76.8 48 76.8C46.727 76.8 45.5061 76.2943 44.6059 75.3941C43.7057 74.4939 43.2 73.273 43.2 72V43.2C43.2 41.927 43.7057 40.7061 44.6059 39.8059C45.5061 38.9057 46.727 38.4 48 38.4Z" fill="#585C4A"/>
</svg>
