<svg width="96" height="96" viewBox="0 0 96 96" fill="none" xmlns="http://www.w3.org/2000/svg">
<g clip-path="url(#clip0_72_417)">
<path fill-rule="evenodd" clip-rule="evenodd" d="M10.5 12C4.70101 12 2.70084e-08 16.701 2.70084e-08 22.5V26.9146C-0.000977741 26.9687 -0.000975401 27.0229 2.70084e-08 27.0769V73.5C2.70084e-08 79.299 4.70101 84 10.5 84H85.5C91.299 84 96 79.299 96 73.5V27.0759C96.0012 27.0226 96.0012 26.9691 96 26.9156V22.5C96 16.701 91.299 12 85.5 12H10.5ZM87 24.4217V22.5C87 21.6716 86.3286 21 85.5 21H10.5C9.67158 21 9 21.6716 9 22.5V24.4217L48 47.2838L87 24.4217ZM9 34.8541V73.5C9 74.3286 9.67158 75 10.5 75H85.5C86.3286 75 87 74.3286 87 73.5V34.8541L50.2757 56.3821C48.8704 57.2059 47.1296 57.2059 45.7243 56.3821L9 34.8541Z" fill="#585C4A"/>
</g>
<defs>
<clipPath id="clip0_72_417">
<rect width="96" height="96" fill="white"/>
</clipPath>
</defs>
</svg>
