<svg width="48" height="48" viewBox="0 0 63 62" fill="none" xmlns="http://www.w3.org/2000/svg">
<path fill-rule="evenodd" clip-rule="evenodd" d="M61.5432 1.43784C63.4856 3.35496 63.4856 6.46322 61.5432 8.38034L35.0169 34.5622C33.0746 36.4793 29.9254 36.4793 27.9831 34.5622L1.45676 8.38034C-0.485586 6.46323 -0.485586 3.35496 1.45676 1.43784C3.3991 -0.479277 6.54827 -0.479278 8.49061 1.43784L31.5 24.1484L54.5094 1.43784C56.4517 -0.47928 59.6009 -0.47928 61.5432 1.43784Z" fill="#585C4A"/>
<path fill-rule="evenodd" clip-rule="evenodd" d="M61.5432 27.4378C63.4856 29.355 63.4856 32.4632 61.5432 34.3803L35.0169 60.5622C33.0746 62.4793 29.9254 62.4793 27.9831 60.5622L1.45676 34.3803C-0.485586 32.4632 -0.485586 29.355 1.45676 27.4378C3.3991 25.5207 6.54827 25.5207 8.49061 27.4378L31.5 50.1484L54.5094 27.4378C56.4517 25.5207 59.6009 25.5207 61.5432 27.4378Z" fill="#585C4A"/>
</svg>
