<svg width="430" height="468" viewBox="0 0 430 468" fill="none" xmlns="http://www.w3.org/2000/svg">
<path fill-rule="evenodd" clip-rule="evenodd" d="M0.593994 334.681V343.823L215 467.621V458.42L0.593994 334.681Z" fill="#C1BFBC"/>
<path fill-rule="evenodd" clip-rule="evenodd" d="M429.406 334.681V343.823L215 467.621V458.42L429.406 334.681Z" fill="#CECDCA"/>
<path fill-rule="evenodd" clip-rule="evenodd" d="M429.406 334.681V123.829L421.5 128.37V339.222L429.406 334.681Z" fill="#CECDCA"/>
<path fill-rule="evenodd" clip-rule="evenodd" d="M421.5 128.37L215 9.34938V0.14856L429.406 123.829L421.5 128.37Z" fill="#DBDBD9"/>
<path fill-rule="evenodd" clip-rule="evenodd" d="M0.593994 334.681V123.829L8.49998 128.37V339.222L0.593994 334.681Z" fill="#C1BFBC"/>
<path fill-rule="evenodd" clip-rule="evenodd" d="M8.49999 128.37L215 9.34938V0.14856L0.593994 123.829L8.49999 128.37Z" fill="#DBDBD9"/>
<path fill-rule="evenodd" clip-rule="evenodd" d="M215 9.34937V220.083L8.5 339.222V128.37L215 9.34937Z" fill="#CBBAB3"/>
<path fill-rule="evenodd" clip-rule="evenodd" d="M215 9.34937V220.083L421.5 339.222V128.37L215 9.34937Z" fill="#EBE5DA"/>
<path fill-rule="evenodd" clip-rule="evenodd" d="M8.61792 339.34L215.118 220.142V209.113L8.61792 328.252V339.34Z" fill="#B3998F"/>
<path fill-rule="evenodd" clip-rule="evenodd" d="M421.5 337.689L215 456.828L8.5 339.222L215 218.491L421.5 337.689Z" fill="#DEC9AC"/>
<path fill-rule="evenodd" clip-rule="evenodd" d="M297.777 356.208L169.983 430.818L8.55908 339.281L137.651 263.846L297.777 356.208Z" fill="#65533C"/>
<path fill-rule="evenodd" clip-rule="evenodd" d="M244.264 142.997V74.8757L385.687 155.501V224.212L244.264 142.997Z" fill="#D6B280"/>
<path fill-rule="evenodd" clip-rule="evenodd" d="M372.825 172.074C372.589 171.779 372.412 171.484 372.176 171.189C372.353 171.543 372.589 171.838 372.825 172.074ZM374.123 173.843C373.769 173.431 373.474 172.959 373.12 172.546C373.474 172.959 373.828 173.372 374.123 173.843ZM348.399 164.879C348.163 164.348 347.927 163.876 347.691 163.345C347.927 163.817 348.163 164.348 348.399 164.879ZM254.471 115.395C254.294 115.513 254.117 115.69 253.94 115.808C254.117 115.69 254.294 115.572 254.471 115.395ZM255.533 114.51C255.356 114.687 255.179 114.805 255.002 114.982C255.179 114.805 255.356 114.628 255.533 114.51ZM267.215 130.611C265.327 132.381 263.38 134.032 261.315 135.566C263.321 133.973 265.327 132.322 267.215 130.611ZM267.628 130.199C267.51 130.317 267.333 130.493 267.215 130.611C267.333 130.434 267.51 130.317 267.628 130.199ZM268.277 129.55C268.041 129.727 267.864 129.963 267.628 130.14C267.864 129.963 268.041 129.786 268.277 129.55ZM276.36 120.644C276.183 120.88 276.006 121.057 275.888 121.293C276.006 121.057 276.183 120.821 276.36 120.644ZM278.956 117.105C278.779 117.341 278.661 117.518 278.484 117.754C278.661 117.577 278.779 117.341 278.956 117.105ZM341.26 187.586C341.142 187.409 341.083 187.291 340.965 187.114C341.083 187.291 341.142 187.468 341.26 187.586ZM365.45 152.965L368.4 154.675L377.604 160.101V165.527V174.138V177.323V178.031V180.272V209.88V209.939L343.325 190.476C342.853 189.827 342.381 189.178 341.909 188.529C342.381 189.237 342.853 189.886 343.325 190.476L334.18 185.285L318.191 176.203L295.83 163.581L273.41 150.9L269.634 148.777L267.097 147.303L264.383 145.71L257.008 141.346L254.943 140.107L252.347 138.574V127.898V124.478V117.223V115.926V108.966V89.1488L268.631 98.7035L269.457 99.1753L284.738 107.727C283.086 110.912 281.198 113.979 279.133 116.928C281.198 113.979 283.027 110.912 284.738 107.727L292.998 112.387C291.7 117.459 289.989 122.413 287.924 127.25C289.989 122.472 291.7 117.459 292.998 112.387L302.556 117.754L313.412 123.829L338.723 138.043L357.957 148.836L358.488 149.131L365.45 152.965Z" fill="#E6ECD2"/>
<path fill-rule="evenodd" clip-rule="evenodd" d="M385.687 155.501L377.604 160.101L252.406 89.0308L244.264 74.8757L385.687 155.501Z" fill="#D6B280"/>
<path fill-rule="evenodd" clip-rule="evenodd" d="M385.687 224.212L377.604 209.939L252.406 138.456L244.264 142.997L385.687 224.212Z" fill="#D6B280"/>
<path fill-rule="evenodd" clip-rule="evenodd" d="M252.406 138.456L254.707 136.509L377.604 206.695V209.939L252.406 138.456Z" fill="#F2D9AB"/>
<path fill-rule="evenodd" clip-rule="evenodd" d="M254.707 136.509V90.3284L252.406 89.0308V138.456L254.707 136.509Z" fill="#C7924D"/>
<path fill-rule="evenodd" clip-rule="evenodd" d="M385.687 224.212L388.814 222.325V153.437L385.687 155.501V224.212Z" fill="#C7924D"/>
<path fill-rule="evenodd" clip-rule="evenodd" d="M244.264 74.8757L247.332 72.6935L388.814 153.437L385.687 155.501L244.264 74.8757Z" fill="#F2D9AB"/>
<path fill-rule="evenodd" clip-rule="evenodd" d="M48.62 215.66V189.001L25.551 202.567V229.402L48.62 215.66Z" fill="#D6B280"/>
<path fill-rule="evenodd" clip-rule="evenodd" d="M32.3361 202.213L33.4571 201.564L36.4071 199.853L38.7081 198.438L45.4341 194.545V202.272V205.044V208.347V209.703V213.891L43.6051 214.952L40.7141 216.722L39.652 217.311L38.6491 217.901L28.7371 223.858V212.239V211.06V209.821V206.459V204.336L32.3361 202.213Z" fill="#E6ECD2"/>
<path fill-rule="evenodd" clip-rule="evenodd" d="M25.551 202.567L28.737 204.336L45.434 194.545L48.62 189.001L25.551 202.567Z" fill="#D6B280"/>
<path fill-rule="evenodd" clip-rule="evenodd" d="M25.551 229.402L28.737 223.858L45.434 213.891L48.62 215.66L25.551 229.402Z" fill="#D6B280"/>
<path fill-rule="evenodd" clip-rule="evenodd" d="M39.652 217.311L45.4341 213.891L44.5491 213.124L28.7371 222.561V223.858L39.652 217.311Z" fill="#F2D9AB"/>
<path fill-rule="evenodd" clip-rule="evenodd" d="M44.5491 213.124V195.076L45.434 194.545V213.891L44.5491 213.124Z" fill="#C7924D"/>
<path fill-rule="evenodd" clip-rule="evenodd" d="M25.551 229.402L24.312 228.694V201.741L25.551 202.567V229.402Z" fill="#C7924D"/>
<path fill-rule="evenodd" clip-rule="evenodd" d="M48.62 189.001L47.381 188.176L24.312 201.741L25.551 202.567L48.62 189.001Z" fill="#F2D9AB"/>
<path fill-rule="evenodd" clip-rule="evenodd" d="M82.368 196.846V170.187L59.3579 183.752V210.588L82.368 196.846Z" fill="#D6B280"/>
<path fill-rule="evenodd" clip-rule="evenodd" d="M66.1429 183.398L67.2639 182.749L70.1549 181.039L72.5149 179.682L79.2409 175.731V183.457V186.229V189.591V190.889V195.076L77.4119 196.197L74.5209 197.907L73.4589 198.497L72.4559 199.087L62.5439 205.044V193.425V192.245V191.007V187.645V185.521L66.1429 183.398Z" fill="#E6ECD2"/>
<path fill-rule="evenodd" clip-rule="evenodd" d="M59.3579 183.752L62.5439 185.521L79.2409 175.731L82.368 170.187L59.3579 183.752Z" fill="#D6B280"/>
<path fill-rule="evenodd" clip-rule="evenodd" d="M59.3579 210.588L62.5439 205.044L79.2409 195.076L82.368 196.846L59.3579 210.588Z" fill="#D6B280"/>
<path fill-rule="evenodd" clip-rule="evenodd" d="M73.4589 198.497L79.2409 195.076L78.2969 194.309L62.5439 203.746V205.044L73.4589 198.497Z" fill="#F2D9AB"/>
<path fill-rule="evenodd" clip-rule="evenodd" d="M78.2969 194.309V176.262L79.2409 175.731V195.076L78.2969 194.309Z" fill="#C7924D"/>
<path fill-rule="evenodd" clip-rule="evenodd" d="M59.3578 210.588L58.1189 209.88V182.926L59.3578 183.752V210.588Z" fill="#C7924D"/>
<path fill-rule="evenodd" clip-rule="evenodd" d="M82.3679 170.187L81.1879 169.361L58.1189 182.926L59.3579 183.752L82.3679 170.187Z" fill="#F2D9AB"/>
<path fill-rule="evenodd" clip-rule="evenodd" d="M115.29 177.795V151.136L92.2209 164.643V191.537L115.29 177.795Z" fill="#D6B280"/>
<path fill-rule="evenodd" clip-rule="evenodd" d="M99.006 164.348L100.186 163.64L103.077 161.93L105.437 160.573L112.104 156.621V164.407V167.12V170.482V171.838V175.967L110.275 177.087L107.384 178.798L106.322 179.447L105.378 180.036L95.407 185.934V174.315V173.195V171.956V168.594V166.471L99.006 164.348Z" fill="#E6ECD2"/>
<path fill-rule="evenodd" clip-rule="evenodd" d="M92.2209 164.643L95.4069 166.471L112.104 156.621L115.29 151.136L92.2209 164.643Z" fill="#D6B280"/>
<path fill-rule="evenodd" clip-rule="evenodd" d="M92.2209 191.537L95.4069 185.934L112.104 175.967L115.29 177.795L92.2209 191.537Z" fill="#D6B280"/>
<path fill-rule="evenodd" clip-rule="evenodd" d="M106.322 179.447L112.104 175.967L111.219 175.259L95.407 184.696V185.934L106.322 179.447Z" fill="#F2D9AB"/>
<path fill-rule="evenodd" clip-rule="evenodd" d="M111.219 175.259V157.152L112.104 156.621V175.967L111.219 175.259Z" fill="#C7924D"/>
<path fill-rule="evenodd" clip-rule="evenodd" d="M92.221 191.537L91.041 190.771V163.817L92.221 164.643V191.537Z" fill="#C7924D"/>
<path fill-rule="evenodd" clip-rule="evenodd" d="M115.29 151.136L114.11 150.252L91.041 163.817L92.221 164.643L115.29 151.136Z" fill="#F2D9AB"/>
<path fill-rule="evenodd" clip-rule="evenodd" d="M163.198 184.342V181.452L194.055 163.522V166.471L163.198 184.342Z" fill="#D6B280"/>
<path fill-rule="evenodd" clip-rule="evenodd" d="M194.055 163.522L178.833 154.675L147.976 172.605L163.198 181.452L194.055 163.522Z" fill="#F2D9AB"/>
<path fill-rule="evenodd" clip-rule="evenodd" d="M163.198 184.342V181.452L147.976 172.605V175.554L163.198 184.342Z" fill="#C7924D"/>
<path fill-rule="evenodd" clip-rule="evenodd" d="M187.86 144.649V141.7L218.717 123.829V126.778L187.86 144.649Z" fill="#D6B280"/>
<path fill-rule="evenodd" clip-rule="evenodd" d="M218.717 123.829L203.495 114.982L172.638 132.912L187.86 141.7L218.717 123.829Z" fill="#F2D9AB"/>
<path fill-rule="evenodd" clip-rule="evenodd" d="M187.86 144.649V141.7L172.638 132.912V135.861L187.86 144.649Z" fill="#C7924D"/>
<path fill-rule="evenodd" clip-rule="evenodd" d="M163.493 168.476C163.493 170.777 166.915 172.605 171.104 172.605C175.293 172.605 178.715 170.777 178.715 168.476C178.715 166.176 175.293 164.348 171.104 164.348C166.915 164.348 163.493 166.176 163.493 168.476Z" fill="#9C9D9E"/>
<path fill-rule="evenodd" clip-rule="evenodd" d="M163.493 167.474C163.493 169.774 166.915 171.602 171.104 171.602C175.293 171.602 178.715 169.774 178.715 167.474C178.715 165.173 175.293 163.345 171.104 163.345C166.915 163.286 163.493 165.173 163.493 167.474Z" fill="#EDEDEB"/>
<path fill-rule="evenodd" clip-rule="evenodd" d="M172.166 149.898V166.471V166.53C172.166 166.884 171.694 167.12 171.045 167.12C170.455 167.12 169.983 166.884 169.924 166.53V149.898H172.166Z" fill="#DADBDB"/>
<path fill-rule="evenodd" clip-rule="evenodd" d="M179.777 145.474L181.016 157.388C181.016 159.983 175.883 162.107 171.104 162.107C166.325 162.107 161.251 159.983 161.251 157.388L162.431 145.474H179.777Z" fill="#EAEDEB"/>
<path fill-rule="evenodd" clip-rule="evenodd" d="M162.49 145.474C162.49 148.069 166.384 150.193 171.163 150.193C175.942 150.193 179.836 148.069 179.836 145.474C179.836 142.879 175.942 140.756 171.163 140.756C166.325 140.756 162.49 142.879 162.49 145.474Z" fill="#F7F9FA"/>
<path fill-rule="evenodd" clip-rule="evenodd" d="M163.729 145.474C163.729 147.657 167.033 149.485 171.104 149.485C175.175 149.485 178.479 147.715 178.479 145.474C178.479 143.292 175.175 141.464 171.104 141.464C167.033 141.464 163.729 143.233 163.729 145.474Z" fill="#DADBDB"/>
<path fill-rule="evenodd" clip-rule="evenodd" d="M188.686 127.309C188.686 129.609 192.108 131.437 196.297 131.437C200.486 131.437 203.908 129.609 203.908 127.309C203.908 125.008 200.486 123.18 196.297 123.18C192.108 123.18 188.686 125.008 188.686 127.309Z" fill="#9C9D9E"/>
<path fill-rule="evenodd" clip-rule="evenodd" d="M188.686 126.247C188.686 128.547 192.108 130.375 196.297 130.375C200.486 130.375 203.908 128.547 203.908 126.247C203.908 123.947 200.486 122.118 196.297 122.118C192.108 122.118 188.686 124.006 188.686 126.247Z" fill="#EDEDEB"/>
<path fill-rule="evenodd" clip-rule="evenodd" d="M197.359 108.73V125.303V125.362C197.359 125.716 196.887 125.952 196.238 125.952C195.648 125.952 195.176 125.716 195.117 125.362V108.73H197.359Z" fill="#DADBDB"/>
<path fill-rule="evenodd" clip-rule="evenodd" d="M204.97 104.248L206.209 116.161C206.209 118.757 201.076 120.88 196.297 120.88C191.518 120.88 186.444 118.757 186.444 116.161L187.624 104.248H204.97Z" fill="#EAEDEB"/>
<path fill-rule="evenodd" clip-rule="evenodd" d="M187.683 104.248C187.683 106.843 191.577 108.966 196.356 108.966C201.135 108.966 205.029 106.843 205.029 104.248C205.029 101.652 201.135 99.5292 196.356 99.5292C191.577 99.5882 187.683 101.711 187.683 104.248Z" fill="#F7F9FA"/>
<path fill-rule="evenodd" clip-rule="evenodd" d="M188.981 104.248C188.981 106.43 192.285 108.258 196.356 108.258C200.427 108.258 203.731 106.489 203.731 104.248C203.731 102.065 200.427 100.237 196.356 100.237C192.285 100.296 188.981 102.065 188.981 104.248Z" fill="#DADBDB"/>
<path fill-rule="evenodd" clip-rule="evenodd" d="M421.5 337.689L215 218.491V207.462L421.5 326.66V337.689Z" fill="#CAA77A"/>
<path fill-rule="evenodd" clip-rule="evenodd" d="M162.962 219.435L157.77 222.502V260.602L162.962 257.594V219.435Z" fill="#D6B280"/>
<path fill-rule="evenodd" clip-rule="evenodd" d="M246.152 201.033L215.295 183.103L152.578 219.435L183.494 237.365L246.152 201.033Z" fill="#F2D9AB"/>
<path fill-rule="evenodd" clip-rule="evenodd" d="M183.494 256.415V237.364L178.302 234.357L152.578 219.435V238.544V257.594L157.77 260.602V241.552L178.302 253.407V272.516L183.494 275.524V256.415Z" fill="#C7924D"/>
<path fill-rule="evenodd" clip-rule="evenodd" d="M240.842 204.1L240.96 204.159V242.26L235.768 239.252V207.049L240.842 204.1Z" fill="#C7924D"/>
<path fill-rule="evenodd" clip-rule="evenodd" d="M246.152 201.151L240.96 204.159V242.26L246.152 239.252V201.151Z" fill="#D6B280"/>
<path fill-rule="evenodd" clip-rule="evenodd" d="M183.494 256.415V237.364L188.627 234.356L246.152 201.033V220.083L188.627 253.407V272.516L183.494 275.524V256.415Z" fill="#D6B280"/>
<path fill-rule="evenodd" clip-rule="evenodd" d="M188.391 239.134L213.82 224.33V235.064L188.391 249.868V239.134Z" fill="#F2D9AB"/>
<path fill-rule="evenodd" clip-rule="evenodd" d="M202.374 236.539C202.374 237.247 201.784 238.072 201.076 238.367C200.368 238.662 199.778 238.367 199.778 237.659C199.778 236.952 200.368 236.126 201.076 235.831C201.784 235.536 202.374 235.831 202.374 236.539Z" fill="#D0A367"/>
<path fill-rule="evenodd" clip-rule="evenodd" d="M215.472 223.445L240.901 208.7V219.376L215.472 234.18V223.445Z" fill="#F2D9AB"/>
<path fill-rule="evenodd" clip-rule="evenodd" d="M229.455 220.85C229.455 221.558 228.865 222.384 228.157 222.679C227.449 222.973 226.859 222.679 226.859 221.971C226.859 221.263 227.449 220.437 228.157 220.142C228.924 219.848 229.455 220.142 229.455 220.85Z" fill="#D0A367"/>
<path fill-rule="evenodd" clip-rule="evenodd" d="M186.503 206.99L203.613 216.84L215 210.293V209.172L197.949 200.443L186.503 205.869V206.99Z" fill="#3E3023"/>
<path fill-rule="evenodd" clip-rule="evenodd" d="M186.503 205.869L203.613 215.719L215 209.172L197.949 199.323L186.503 205.869Z" fill="#5C4B3C"/>
<path fill-rule="evenodd" clip-rule="evenodd" d="M203.849 215.778V216.545L215 210.116V209.349L203.849 215.778Z" fill="#F1F2EB"/>
<path fill-rule="evenodd" clip-rule="evenodd" d="M179.777 216.545L191.695 223.386L199.601 218.845V218.078L187.742 212.003L179.777 215.778V216.545Z" fill="#3E3023"/>
<path fill-rule="evenodd" clip-rule="evenodd" d="M179.777 215.778L191.695 222.62L199.601 218.078L187.742 211.237L179.777 215.778Z" fill="#5C4B3C"/>
<path fill-rule="evenodd" clip-rule="evenodd" d="M191.872 222.679V223.209L199.601 218.727V218.196L191.872 222.679Z" fill="#F1F2EB"/>
<path fill-rule="evenodd" clip-rule="evenodd" d="M178.715 215.129L190.574 221.971L198.539 217.429V216.663L186.68 210.588L178.715 214.362V215.129Z" fill="#90998B"/>
<path fill-rule="evenodd" clip-rule="evenodd" d="M178.715 214.362L190.574 221.204L198.539 216.663L186.68 209.821L178.715 214.362Z" fill="#AEB4AA"/>
<path fill-rule="evenodd" clip-rule="evenodd" d="M190.81 221.263V221.794L198.539 217.311V216.781L190.81 221.263Z" fill="#F1F2EB"/>
<path fill-rule="evenodd" clip-rule="evenodd" d="M187.978 211.413L181.842 214.893L183.73 215.955L189.866 212.534L187.978 211.413Z" fill="white"/>
<path fill-rule="evenodd" clip-rule="evenodd" d="M17.999 334.622V315.395L120.364 261.605L258.483 339.104V355.265L155.823 414.303L17.999 334.622Z" fill="#F2D9AB"/>
<path fill-rule="evenodd" clip-rule="evenodd" d="M17.999 320.054L156 397.553L155.823 414.303L17.999 334.622V320.054Z" fill="#C7924D"/>
<path fill-rule="evenodd" clip-rule="evenodd" d="M156 397.553L155.823 414.303L258.483 355.265V339.104L156 397.553Z" fill="#D6B280"/>
<path fill-rule="evenodd" clip-rule="evenodd" d="M52.337 287.084L47.027 290.092V262.667L52.337 259.6V287.084ZM63.724 280.656L58.414 283.663V256.179L63.724 253.112V280.656ZM75.111 274.168L69.801 277.176V249.632L75.111 246.565V274.168ZM86.498 267.68L81.188 270.688V243.086L86.498 240.019V267.68ZM97.885 261.251L92.575 264.259V236.598L97.885 233.531V261.251ZM109.213 254.763L103.903 257.771V230.051L109.213 226.984V254.763ZM120.6 248.276L115.29 251.284V223.504L120.6 220.437V248.276ZM131.987 241.847L126.677 244.855V216.958L131.987 213.891V241.847ZM35.699 269.213V296.58L41.009 293.572V266.206L35.699 269.213ZM27.262 325.48V266.382L140.483 201.387V261.133L27.262 325.48Z" fill="#D6B280"/>
<path fill-rule="evenodd" clip-rule="evenodd" d="M140.424 201.387L131.102 195.961L17.999 260.249L27.262 266.382L140.424 201.387Z" fill="#F2D9AB"/>
<path fill-rule="evenodd" clip-rule="evenodd" d="M17.999 260.249V319.995L27.262 325.48V266.382L17.999 260.249Z" fill="#C7924D"/>
<path fill-rule="evenodd" clip-rule="evenodd" d="M32.9849 322.236V303.009L135.291 245.445L258.483 313.92V333.796L155.823 392.894L32.9849 322.236Z" fill="#F6F5E9"/>
<path fill-rule="evenodd" clip-rule="evenodd" d="M32.9849 303.009L156 371.425L155.823 392.894L32.9849 322.236V303.009Z" fill="#E0DEDD"/>
<path fill-rule="evenodd" clip-rule="evenodd" d="M156 371.425L155.823 392.894L258.483 333.796V313.92L156 371.425Z" fill="#CCCAC8"/>
<path fill-rule="evenodd" clip-rule="evenodd" d="M69.6831 323.416L175.234 267.621L254.53 311.679L152.46 369.479L69.6831 323.416Z" fill="#F0E5D5"/>
<path fill-rule="evenodd" clip-rule="evenodd" d="M152.46 369.479V390.947L69.6831 343.351V323.416L152.46 369.479Z" fill="#A48C74"/>
<path fill-rule="evenodd" clip-rule="evenodd" d="M101.956 267.68C101.956 267.68 126.618 258.715 135.232 248.866C135.232 248.866 139.126 245.386 141.014 252.286C144.436 257.889 157.121 265.085 156 266.029C156 266.029 159.363 267.798 155.823 270.393C152.283 272.988 135.999 274.758 124.848 287.379C124.848 287.379 117.886 294.516 116.824 289.502C116.352 285.315 93.873 271.632 101.956 267.68Z" fill="#EDEDED"/>
<path fill-rule="evenodd" clip-rule="evenodd" d="M101.956 267.68C101.956 267.68 126.618 258.715 135.232 248.866C135.232 248.866 139.126 245.386 141.014 252.286C144.436 257.889 157.121 265.085 156 266.029C156 266.029 158.537 267.385 156.885 269.449C150.454 271.042 135.173 271.691 125.615 282.484C125.615 282.484 118.653 289.62 117.591 284.607C117.296 281.894 106.263 276.35 100.54 271.691C99.832 269.98 100.127 268.565 101.956 267.68Z" fill="white"/>
<path fill-rule="evenodd" clip-rule="evenodd" d="M56.0539 294.516C56.0539 294.516 80.7159 285.551 89.3299 275.701C89.3299 275.701 93.2239 272.221 95.1119 279.122C98.5339 284.725 111.219 291.921 110.098 292.864C110.098 292.864 113.461 294.634 109.921 297.229C106.381 299.824 90.0969 301.593 78.9459 314.215C78.9459 314.215 71.9839 321.351 70.9219 316.338C70.4499 312.092 47.9709 298.467 56.0539 294.516Z" fill="#EDEDED"/>
<path fill-rule="evenodd" clip-rule="evenodd" d="M56.0539 294.516C56.0539 294.516 80.7159 285.551 89.3299 275.701C89.3299 275.701 93.2239 272.221 95.1119 279.122C98.5339 284.725 111.219 291.921 110.098 292.864C110.098 292.864 112.635 294.221 110.983 296.285C104.552 297.878 89.2709 298.526 79.7129 309.32C79.7129 309.32 72.7509 316.456 71.6889 311.443C71.3939 308.73 60.3609 303.186 54.6379 298.526C53.9299 296.757 54.2249 295.4 56.0539 294.516Z" fill="white"/>
</svg>
