<?xml version="1.0" standalone="no"?>
<!DOCTYPE svg PUBLIC "-//W3C//DTD SVG 20010904//EN"
 "http://www.w3.org/TR/2001/REC-SVG-20010904/DTD/svg10.dtd">
<svg version="1.0" xmlns="http://www.w3.org/2000/svg"
 width="200.000000pt" height="200.000000pt" viewBox="0 0 200.000000 200.000000"
 preserveAspectRatio="xMidYMid meet">
<metadata>
Created by potrace 1.14, written by Peter Selinger 2001-2017
</metadata>
<g transform="translate(0.000000,200.000000) scale(0.100000,-0.100000)"
fill="#000000" stroke="none">
<path d="M650 1758 c-190 -110 -365 -213 -390 -227 -25 -14 -53 -31 -62 -36
-16 -9 -17 -54 -19 -490 l-2 -480 49 -29 c27 -16 215 -125 418 -242 338 -196
370 -212 390 -200 26 17 384 225 411 240 11 6 104 60 206 120 l187 108 1 482
2 482 -407 235 c-224 129 -415 235 -423 236 -9 2 -171 -88 -361 -199z"/>
</g>
</svg>
